<?xml version="1.0" encoding="UTF-8"?>
<svg xmlns="http://www.w3.org/2000/svg" width="900" height="1200" viewBox="0 0 900 1200" role="img">

  <defs>
  <pattern id="p" width="200" height="200" patternUnits="userSpaceOnUse">
    
    <rect width="200" height="200" fill="#f4f0ea"/>
    <g fill="none" stroke="#b8aea2" stroke-width="2.2">
      <path d="M0 40 C40 30 70 70 110 60 C150 48 170 90 200 80"/>
      <path d="M0 120 C50 140 80 100 130 118 C160 130 180 110 200 124"/>
    </g>
    <g fill="none" stroke="#8e8578" stroke-width="1.1" opacity=".7">
      <path d="M20 0 C30 50 10 90 40 200"/>
      <path d="M160 0 C150 60 180 110 150 200"/>
      <path d="M80 10 C90 80 70 130 95 200"/>
    </g>
  
  </pattern>
</defs>
  <rect width="900" height="1200" fill="url(#p)"/>
  <rect x="0" y="980" width="900" height="220" fill="#f4f0ea"/>
  <rect x="0" y="978" width="900" height="3" fill="#0d0d12"/>
  <!-- leftover roll -->
  <g transform="translate(70,820)">
    <rect x="18" y="40" width="150" height="18" rx="4" fill="url(#p)" stroke="#0d0d12" stroke-width="2"/>
    <ellipse cx="18" cy="49" rx="16" ry="22" fill="#b8aea2" stroke="#0d0d12" stroke-width="2"/>
    <ellipse cx="18" cy="49" rx="8" ry="12" fill="#f4f0ea"/>
    <text x="40" y="88" fill="#0d0d12" font-family="ui-monospace, monospace" font-size="14">LEFTOVER ROLL</text>
  </g>
  <!-- can -->
  <g transform="translate(310,250)">
    <ellipse cx="140" cy="620" rx="128" ry="22" fill="#0d0d12" opacity=".18"/>
    <path d="M28 90 L252 90 L230 620 L50 620 Z" fill="url(#p)" stroke="#0d0d12" stroke-width="3"/>
    <path d="M40 110 L240 110 L222 600 L58 600 Z" fill="none" stroke="#fff" stroke-width="2" opacity=".35"/>
    <ellipse cx="140" cy="90" rx="116" ry="36" fill="#b8aea2" stroke="#0d0d12" stroke-width="3"/>
    <ellipse cx="140" cy="90" rx="88" ry="24" fill="#d7d3cc"/>
    <ellipse cx="140" cy="90" rx="70" ry="18" fill="#8a8f96"/>
    <text x="140" y="690" text-anchor="middle" fill="#0d0d12" font-family="Archivo Black, Impact, sans-serif" font-size="28" letter-spacing="-1">FOREVER CAN</text>
    <text x="140" y="722" text-anchor="middle" fill="#0d0d12" font-family="ui-monospace, monospace" font-size="16">IN CALACATTA STONE</text>
  </g>
  <rect x="36" y="36" width="828" height="54" fill="#fffdf8" stroke="#0d0d12" stroke-width="2"/>
  <text x="56" y="72" font-family="ui-monospace, monospace" font-size="18" fill="#0d0d12">11  /  STONE  /  MATCH THE WALL</text>

</svg>
