<?xml version="1.0" encoding="UTF-8"?>
<svg xmlns="http://www.w3.org/2000/svg" width="900" height="1200" viewBox="0 0 900 1200" role="img">

  <defs>
  <pattern id="p" width="160" height="160" patternUnits="userSpaceOnUse">
    
    <rect width="160" height="160" fill="#f7efe8"/>
    <g fill="#c47a86">
      <path d="M36 48 c8-16 24-16 32 0 c-8 6-16 8-32 0Z"/>
      <path d="M44 40 c10-8 18-4 20 8 c-8 2-14 2-20-8Z"/>
      <path d="M108 112 c10-18 28-16 34 4 c-10 6-20 8-34-4Z"/>
    </g>
    <g fill="none" stroke="#6d7b5e" stroke-width="1.3">
      <path d="M20 20 C50 40 50 80 20 120"/>
      <path d="M140 20 C110 40 110 80 140 120"/>
      <path d="M52 70 C70 90 90 90 110 70"/>
    </g>
    <circle cx="80" cy="80" r="3.5" fill="#c45a7a"/>
  
  </pattern>
</defs>
  <rect width="900" height="1200" fill="url(#p)"/>
  <rect x="0" y="980" width="900" height="220" fill="#f7efe8"/>
  <rect x="0" y="978" width="900" height="3" fill="#0d0d12"/>
  <!-- leftover roll -->
  <g transform="translate(70,820)">
    <rect x="18" y="40" width="150" height="18" rx="4" fill="url(#p)" stroke="#0d0d12" stroke-width="2"/>
    <ellipse cx="18" cy="49" rx="16" ry="22" fill="#c47a86" stroke="#0d0d12" stroke-width="2"/>
    <ellipse cx="18" cy="49" rx="8" ry="12" fill="#f7efe8"/>
    <text x="40" y="88" fill="#0d0d12" font-family="ui-monospace, monospace" font-size="14">LEFTOVER ROLL</text>
  </g>
  <!-- can -->
  <g transform="translate(310,250)">
    <ellipse cx="140" cy="620" rx="128" ry="22" fill="#0d0d12" opacity=".18"/>
    <path d="M28 90 L252 90 L230 620 L50 620 Z" fill="url(#p)" stroke="#0d0d12" stroke-width="3"/>
    <path d="M40 110 L240 110 L222 600 L58 600 Z" fill="none" stroke="#fff" stroke-width="2" opacity=".35"/>
    <ellipse cx="140" cy="90" rx="116" ry="36" fill="#c47a86" stroke="#0d0d12" stroke-width="3"/>
    <ellipse cx="140" cy="90" rx="88" ry="24" fill="#d7d3cc"/>
    <ellipse cx="140" cy="90" rx="70" ry="18" fill="#8a8f96"/>
    <text x="140" y="690" text-anchor="middle" fill="#0d0d12" font-family="Archivo Black, Impact, sans-serif" font-size="28" letter-spacing="-1">FOREVER CAN</text>
    <text x="140" y="722" text-anchor="middle" fill="#0d0d12" font-family="ui-monospace, monospace" font-size="16">IN ROSE TRELLIS</text>
  </g>
  <rect x="36" y="36" width="828" height="54" fill="#fffdf8" stroke="#0d0d12" stroke-width="2"/>
  <text x="56" y="72" font-family="ui-monospace, monospace" font-size="18" fill="#0d0d12">03  /  FLORAL  /  MATCH THE WALL</text>

</svg>
